<mxfile host="app.diagrams.net" agent="Mozilla/5.0 (Windows NT 10.0; Win64; x64) AppleWebKit/537.36 (KHTML, like Gecko) Chrome/130.0.0.0 Safari/537.36" version="24.8.4">
  <diagram name="PÃ¡gina-1" id="SKRLu6_MuARgDEXjkevO">
    <mxGraphModel dx="2263" dy="2077" grid="1" gridSize="10" guides="1" tooltips="1" connect="1" arrows="1" fold="1" page="1" pageScale="1" pageWidth="827" pageHeight="1169" math="0" shadow="0">
      <root>
        <mxCell id="0" />
        <mxCell id="1" parent="0" />
        <mxCell id="TCKFNK1VzcnC_DEqVwrI-56" value="" style="rounded=0;whiteSpace=wrap;html=1;fillColor=none;" parent="1" vertex="1">
          <mxGeometry x="-346" y="-450" width="916" height="370" as="geometry" />
        </mxCell>
        <mxCell id="TCKFNK1VzcnC_DEqVwrI-37" value="" style="rounded=0;whiteSpace=wrap;html=1;fillColor=none;" parent="1" vertex="1">
          <mxGeometry x="-420" y="140" width="1110" height="660" as="geometry" />
        </mxCell>
        <mxCell id="TCKFNK1VzcnC_DEqVwrI-40" value="" style="rounded=0;whiteSpace=wrap;html=1;fillColor=none;" parent="1" vertex="1">
          <mxGeometry x="740" y="-122" width="410" height="732" as="geometry" />
        </mxCell>
        <mxCell id="ePh-xBDJGtSykjtxWbjK-45" style="edgeStyle=orthogonalEdgeStyle;rounded=0;orthogonalLoop=1;jettySize=auto;html=1;exitX=1;exitY=0.5;exitDx=0;exitDy=0;entryX=0;entryY=0.5;entryDx=0;entryDy=0;" edge="1" parent="1" source="TCKFNK1VzcnC_DEqVwrI-7" target="TCKFNK1VzcnC_DEqVwrI-25">
          <mxGeometry relative="1" as="geometry" />
        </mxCell>
        <mxCell id="ePh-xBDJGtSykjtxWbjK-88" style="edgeStyle=orthogonalEdgeStyle;rounded=0;orthogonalLoop=1;jettySize=auto;html=1;exitX=0.5;exitY=0;exitDx=0;exitDy=0;entryX=0.5;entryY=1;entryDx=0;entryDy=0;endArrow=none;endFill=0;" edge="1" parent="1" source="TCKFNK1VzcnC_DEqVwrI-7" target="ePh-xBDJGtSykjtxWbjK-81">
          <mxGeometry relative="1" as="geometry" />
        </mxCell>
        <mxCell id="TCKFNK1VzcnC_DEqVwrI-7" value="Enemies" style="swimlane;fontStyle=0;childLayout=stackLayout;horizontal=1;startSize=26;fillColor=none;horizontalStack=0;resizeParent=1;resizeParentMax=0;resizeLast=0;collapsible=1;marginBottom=0;whiteSpace=wrap;html=1;" parent="1" vertex="1">
          <mxGeometry x="-410" y="380" width="140" height="52" as="geometry" />
        </mxCell>
        <mxCell id="TCKFNK1VzcnC_DEqVwrI-8" value="Scene" style="swimlane;fontStyle=0;childLayout=stackLayout;horizontal=1;startSize=52;fillColor=none;horizontalStack=0;resizeParent=1;resizeParentMax=0;resizeLast=0;collapsible=1;marginBottom=0;whiteSpace=wrap;html=1;" parent="1" vertex="1">
          <mxGeometry x="760" y="-90" width="140" height="52" as="geometry" />
        </mxCell>
        <mxCell id="ePh-xBDJGtSykjtxWbjK-9" style="edgeStyle=orthogonalEdgeStyle;rounded=0;orthogonalLoop=1;jettySize=auto;html=1;exitX=0.5;exitY=0;exitDx=0;exitDy=0;entryX=0;entryY=0.5;entryDx=0;entryDy=0;endArrow=none;endFill=0;" edge="1" parent="1" source="TCKFNK1VzcnC_DEqVwrI-25" target="TCKFNK1VzcnC_DEqVwrI-28">
          <mxGeometry relative="1" as="geometry">
            <Array as="points">
              <mxPoint x="-150" y="196" />
            </Array>
          </mxGeometry>
        </mxCell>
        <mxCell id="TCKFNK1VzcnC_DEqVwrI-25" value="Entity" style="swimlane;fontStyle=0;childLayout=stackLayout;horizontal=1;startSize=26;fillColor=none;horizontalStack=0;resizeParent=1;resizeParentMax=0;resizeLast=0;collapsible=1;marginBottom=0;whiteSpace=wrap;html=1;" parent="1" vertex="1">
          <mxGeometry x="-220" y="276" width="140" height="52" as="geometry" />
        </mxCell>
        <mxCell id="TCKFNK1VzcnC_DEqVwrI-28" value="EntityController" style="swimlane;fontStyle=0;childLayout=stackLayout;horizontal=1;startSize=26;fillColor=none;horizontalStack=0;resizeParent=1;resizeParentMax=0;resizeLast=0;collapsible=1;marginBottom=0;whiteSpace=wrap;html=1;" parent="1" vertex="1">
          <mxGeometry x="-50" y="170" width="140" height="52" as="geometry" />
        </mxCell>
        <mxCell id="TCKFNK1VzcnC_DEqVwrI-31" value="Events" style="swimlane;fontStyle=0;childLayout=stackLayout;horizontal=1;startSize=52;fillColor=none;horizontalStack=0;resizeParent=1;resizeParentMax=0;resizeLast=0;collapsible=1;marginBottom=0;whiteSpace=wrap;html=1;" parent="1" vertex="1">
          <mxGeometry x="430" y="-200" width="140" height="52" as="geometry" />
        </mxCell>
        <mxCell id="ePh-xBDJGtSykjtxWbjK-32" style="edgeStyle=orthogonalEdgeStyle;rounded=0;orthogonalLoop=1;jettySize=auto;html=1;exitX=0.5;exitY=1;exitDx=0;exitDy=0;entryX=0.5;entryY=0;entryDx=0;entryDy=0;endArrow=none;endFill=0;" edge="1" parent="1" source="TCKFNK1VzcnC_DEqVwrI-32" target="TCKFNK1VzcnC_DEqVwrI-28">
          <mxGeometry relative="1" as="geometry" />
        </mxCell>
        <mxCell id="TCKFNK1VzcnC_DEqVwrI-32" value="AIAgent" style="swimlane;fontStyle=0;childLayout=stackLayout;horizontal=1;startSize=26;fillColor=none;horizontalStack=0;resizeParent=1;resizeParentMax=0;resizeLast=0;collapsible=1;marginBottom=0;whiteSpace=wrap;html=1;" parent="1" vertex="1">
          <mxGeometry x="-50" y="-142" width="140" height="52" as="geometry" />
        </mxCell>
        <mxCell id="TCKFNK1VzcnC_DEqVwrI-38" value="Agent Layer" style="html=1;whiteSpace=wrap;" parent="1" vertex="1">
          <mxGeometry x="-420" y="100" width="150" height="40" as="geometry" />
        </mxCell>
        <mxCell id="TCKFNK1VzcnC_DEqVwrI-41" value="Scene Layer" style="html=1;whiteSpace=wrap;" parent="1" vertex="1">
          <mxGeometry x="740" y="-162" width="150" height="40" as="geometry" />
        </mxCell>
        <mxCell id="TCKFNK1VzcnC_DEqVwrI-52" style="edgeStyle=orthogonalEdgeStyle;rounded=0;orthogonalLoop=1;jettySize=auto;html=1;endArrow=none;endFill=0;" parent="1" source="TCKFNK1VzcnC_DEqVwrI-43" edge="1">
          <mxGeometry relative="1" as="geometry">
            <mxPoint x="60" y="-344" as="targetPoint" />
            <Array as="points">
              <mxPoint x="-100" y="-324" />
              <mxPoint x="60" y="-324" />
            </Array>
          </mxGeometry>
        </mxCell>
        <mxCell id="TCKFNK1VzcnC_DEqVwrI-43" value="DataManager" style="swimlane;fontStyle=0;childLayout=stackLayout;horizontal=1;startSize=26;fillColor=none;horizontalStack=0;resizeParent=1;resizeParentMax=0;resizeLast=0;collapsible=1;marginBottom=0;whiteSpace=wrap;html=1;" parent="1" vertex="1">
          <mxGeometry x="-170" y="-294" width="140" height="52" as="geometry" />
        </mxCell>
        <mxCell id="TCKFNK1VzcnC_DEqVwrI-46" style="edgeStyle=orthogonalEdgeStyle;rounded=0;orthogonalLoop=1;jettySize=auto;html=1;entryX=0.25;entryY=1;entryDx=0;entryDy=0;endArrow=none;endFill=0;" parent="1" source="TCKFNK1VzcnC_DEqVwrI-44" target="TCKFNK1VzcnC_DEqVwrI-43" edge="1">
          <mxGeometry relative="1" as="geometry" />
        </mxCell>
        <mxCell id="TCKFNK1VzcnC_DEqVwrI-44" value="Depth" style="swimlane;fontStyle=0;childLayout=stackLayout;horizontal=1;startSize=26;fillColor=none;horizontalStack=0;resizeParent=1;resizeParentMax=0;resizeLast=0;collapsible=1;marginBottom=0;whiteSpace=wrap;html=1;" parent="1" vertex="1">
          <mxGeometry x="-290" y="-214" width="140" height="52" as="geometry" />
        </mxCell>
        <mxCell id="TCKFNK1VzcnC_DEqVwrI-47" style="edgeStyle=orthogonalEdgeStyle;rounded=0;orthogonalLoop=1;jettySize=auto;html=1;endArrow=none;endFill=0;" parent="1" source="TCKFNK1VzcnC_DEqVwrI-45" edge="1">
          <mxGeometry relative="1" as="geometry">
            <mxPoint x="-90" y="-244" as="targetPoint" />
          </mxGeometry>
        </mxCell>
        <mxCell id="TCKFNK1VzcnC_DEqVwrI-45" value="Enemies Killed" style="swimlane;fontStyle=0;childLayout=stackLayout;horizontal=1;startSize=26;fillColor=none;horizontalStack=0;resizeParent=1;resizeParentMax=0;resizeLast=0;collapsible=1;marginBottom=0;whiteSpace=wrap;html=1;" parent="1" vertex="1">
          <mxGeometry x="-130" y="-214" width="140" height="52" as="geometry" />
        </mxCell>
        <mxCell id="TCKFNK1VzcnC_DEqVwrI-53" style="edgeStyle=orthogonalEdgeStyle;rounded=0;orthogonalLoop=1;jettySize=auto;html=1;endArrow=none;endFill=0;" parent="1" source="TCKFNK1VzcnC_DEqVwrI-48" edge="1">
          <mxGeometry relative="1" as="geometry">
            <mxPoint x="90" y="-344" as="targetPoint" />
          </mxGeometry>
        </mxCell>
        <mxCell id="TCKFNK1VzcnC_DEqVwrI-48" value="SceneManager" style="swimlane;fontStyle=0;childLayout=stackLayout;horizontal=1;startSize=26;fillColor=none;horizontalStack=0;resizeParent=1;resizeParentMax=0;resizeLast=0;collapsible=1;marginBottom=0;whiteSpace=wrap;html=1;" parent="1" vertex="1">
          <mxGeometry x="40" y="-294" width="140" height="52" as="geometry" />
        </mxCell>
        <mxCell id="TCKFNK1VzcnC_DEqVwrI-54" style="edgeStyle=orthogonalEdgeStyle;rounded=0;orthogonalLoop=1;jettySize=auto;html=1;endArrow=none;endFill=0;" parent="1" source="TCKFNK1VzcnC_DEqVwrI-49" edge="1">
          <mxGeometry relative="1" as="geometry">
            <mxPoint x="120" y="-344" as="targetPoint" />
            <Array as="points">
              <mxPoint x="294" y="-324" />
              <mxPoint x="120" y="-324" />
            </Array>
          </mxGeometry>
        </mxCell>
        <mxCell id="TCKFNK1VzcnC_DEqVwrI-49" value="StateMachine" style="swimlane;fontStyle=0;childLayout=stackLayout;horizontal=1;startSize=26;fillColor=none;horizontalStack=0;resizeParent=1;resizeParentMax=0;resizeLast=0;collapsible=1;marginBottom=0;whiteSpace=wrap;html=1;" parent="1" vertex="1">
          <mxGeometry x="224" y="-294" width="140" height="52" as="geometry" />
        </mxCell>
        <mxCell id="TCKFNK1VzcnC_DEqVwrI-55" style="edgeStyle=orthogonalEdgeStyle;rounded=0;orthogonalLoop=1;jettySize=auto;html=1;entryX=1;entryY=0.75;entryDx=0;entryDy=0;endArrow=none;endFill=0;" parent="1" source="TCKFNK1VzcnC_DEqVwrI-50" target="TCKFNK1VzcnC_DEqVwrI-51" edge="1">
          <mxGeometry relative="1" as="geometry">
            <Array as="points">
              <mxPoint x="460" y="-355" />
            </Array>
          </mxGeometry>
        </mxCell>
        <mxCell id="TCKFNK1VzcnC_DEqVwrI-50" value="SoundManager" style="swimlane;fontStyle=0;childLayout=stackLayout;horizontal=1;startSize=26;fillColor=none;horizontalStack=0;resizeParent=1;resizeParentMax=0;resizeLast=0;collapsible=1;marginBottom=0;whiteSpace=wrap;html=1;" parent="1" vertex="1">
          <mxGeometry x="390" y="-294" width="140" height="52" as="geometry" />
        </mxCell>
        <mxCell id="TCKFNK1VzcnC_DEqVwrI-51" value="GameManager" style="swimlane;fontStyle=0;childLayout=stackLayout;horizontal=1;startSize=26;fillColor=none;horizontalStack=0;resizeParent=1;resizeParentMax=0;resizeLast=0;collapsible=1;marginBottom=0;whiteSpace=wrap;html=1;" parent="1" vertex="1">
          <mxGeometry x="30" y="-394" width="140" height="52" as="geometry" />
        </mxCell>
        <mxCell id="TCKFNK1VzcnC_DEqVwrI-57" value="Managers Layer" style="html=1;whiteSpace=wrap;" parent="1" vertex="1">
          <mxGeometry x="-346" y="-490" width="150" height="40" as="geometry" />
        </mxCell>
        <mxCell id="ePh-xBDJGtSykjtxWbjK-1" style="edgeStyle=orthogonalEdgeStyle;rounded=0;orthogonalLoop=1;jettySize=auto;html=1;exitX=0.5;exitY=0;exitDx=0;exitDy=0;entryX=0.5;entryY=1;entryDx=0;entryDy=0;" edge="1" parent="1" source="ENG01ewXfub_soL2wW_B-3" target="TCKFNK1VzcnC_DEqVwrI-25">
          <mxGeometry relative="1" as="geometry" />
        </mxCell>
        <mxCell id="ePh-xBDJGtSykjtxWbjK-47" style="edgeStyle=orthogonalEdgeStyle;rounded=0;orthogonalLoop=1;jettySize=auto;html=1;exitX=0.5;exitY=1;exitDx=0;exitDy=0;entryX=0.5;entryY=0;entryDx=0;entryDy=0;endArrow=none;endFill=0;" edge="1" parent="1" source="ENG01ewXfub_soL2wW_B-3" target="ePh-xBDJGtSykjtxWbjK-46">
          <mxGeometry relative="1" as="geometry" />
        </mxCell>
        <mxCell id="ENG01ewXfub_soL2wW_B-3" value="Player" style="swimlane;fontStyle=0;childLayout=stackLayout;horizontal=1;startSize=26;fillColor=none;horizontalStack=0;resizeParent=1;resizeParentMax=0;resizeLast=0;collapsible=1;marginBottom=0;whiteSpace=wrap;html=1;" parent="1" vertex="1">
          <mxGeometry x="-220" y="380" width="140" height="52" as="geometry" />
        </mxCell>
        <mxCell id="ENG01ewXfub_soL2wW_B-11" value="&lt;font style=&quot;font-size: 200px;&quot; color=&quot;#ff0000&quot;&gt;Draft&lt;/font&gt;&lt;font style=&quot;font-size: 200px;&quot; color=&quot;#ff0000&quot;&gt;&lt;br&gt;&lt;/font&gt;" style="text;strokeColor=#FF0000;fillColor=none;html=1;fontSize=24;fontStyle=1;verticalAlign=middle;align=center;opacity=40;" parent="1" vertex="1">
          <mxGeometry x="-40" y="-820" width="570" height="230" as="geometry" />
        </mxCell>
        <mxCell id="ePh-xBDJGtSykjtxWbjK-82" style="edgeStyle=orthogonalEdgeStyle;rounded=0;orthogonalLoop=1;jettySize=auto;html=1;exitX=0;exitY=0.5;exitDx=0;exitDy=0;entryX=0.5;entryY=1;entryDx=0;entryDy=0;" edge="1" parent="1" source="ePh-xBDJGtSykjtxWbjK-3" target="TCKFNK1VzcnC_DEqVwrI-7">
          <mxGeometry relative="1" as="geometry">
            <Array as="points">
              <mxPoint x="-410" y="536" />
              <mxPoint x="-410" y="480" />
              <mxPoint x="-340" y="480" />
            </Array>
          </mxGeometry>
        </mxCell>
        <mxCell id="ePh-xBDJGtSykjtxWbjK-3" value="BasicEnemy" style="swimlane;fontStyle=0;childLayout=stackLayout;horizontal=1;startSize=26;fillColor=none;horizontalStack=0;resizeParent=1;resizeParentMax=0;resizeLast=0;collapsible=1;marginBottom=0;whiteSpace=wrap;html=1;" vertex="1" parent="1">
          <mxGeometry x="-390" y="510" width="140" height="52" as="geometry" />
        </mxCell>
        <mxCell id="ePh-xBDJGtSykjtxWbjK-86" style="edgeStyle=orthogonalEdgeStyle;rounded=0;orthogonalLoop=1;jettySize=auto;html=1;exitX=0;exitY=0.5;exitDx=0;exitDy=0;entryX=0.5;entryY=1;entryDx=0;entryDy=0;" edge="1" parent="1" source="ePh-xBDJGtSykjtxWbjK-4" target="TCKFNK1VzcnC_DEqVwrI-7">
          <mxGeometry relative="1" as="geometry">
            <Array as="points">
              <mxPoint x="-410" y="616" />
              <mxPoint x="-410" y="480" />
              <mxPoint x="-340" y="480" />
            </Array>
          </mxGeometry>
        </mxCell>
        <mxCell id="ePh-xBDJGtSykjtxWbjK-4" value="BigEnemy" style="swimlane;fontStyle=0;childLayout=stackLayout;horizontal=1;startSize=26;fillColor=none;horizontalStack=0;resizeParent=1;resizeParentMax=0;resizeLast=0;collapsible=1;marginBottom=0;whiteSpace=wrap;html=1;" vertex="1" parent="1">
          <mxGeometry x="-390" y="590" width="140" height="52" as="geometry" />
        </mxCell>
        <mxCell id="ePh-xBDJGtSykjtxWbjK-85" style="edgeStyle=orthogonalEdgeStyle;rounded=0;orthogonalLoop=1;jettySize=auto;html=1;exitX=0;exitY=0.5;exitDx=0;exitDy=0;entryX=0.5;entryY=1;entryDx=0;entryDy=0;" edge="1" parent="1" source="ePh-xBDJGtSykjtxWbjK-5" target="TCKFNK1VzcnC_DEqVwrI-7">
          <mxGeometry relative="1" as="geometry">
            <Array as="points">
              <mxPoint x="-410" y="698" />
              <mxPoint x="-410" y="480" />
              <mxPoint x="-340" y="480" />
            </Array>
          </mxGeometry>
        </mxCell>
        <mxCell id="ePh-xBDJGtSykjtxWbjK-5" value="Boss" style="swimlane;fontStyle=0;childLayout=stackLayout;horizontal=1;startSize=26;fillColor=none;horizontalStack=0;resizeParent=1;resizeParentMax=0;resizeLast=0;collapsible=1;marginBottom=0;whiteSpace=wrap;html=1;" vertex="1" parent="1">
          <mxGeometry x="-390" y="672" width="140" height="52" as="geometry" />
        </mxCell>
        <mxCell id="ePh-xBDJGtSykjtxWbjK-13" style="edgeStyle=orthogonalEdgeStyle;rounded=0;orthogonalLoop=1;jettySize=auto;html=1;exitX=0.25;exitY=1;exitDx=0;exitDy=0;entryX=0;entryY=0.5;entryDx=0;entryDy=0;" edge="1" parent="1" source="ePh-xBDJGtSykjtxWbjK-10" target="ePh-xBDJGtSykjtxWbjK-11">
          <mxGeometry relative="1" as="geometry">
            <Array as="points">
              <mxPoint x="790" y="52" />
              <mxPoint x="790" y="106" />
            </Array>
          </mxGeometry>
        </mxCell>
        <mxCell id="ePh-xBDJGtSykjtxWbjK-14" style="edgeStyle=orthogonalEdgeStyle;rounded=0;orthogonalLoop=1;jettySize=auto;html=1;exitX=0.25;exitY=1;exitDx=0;exitDy=0;entryX=0;entryY=0.5;entryDx=0;entryDy=0;" edge="1" parent="1" source="ePh-xBDJGtSykjtxWbjK-10" target="ePh-xBDJGtSykjtxWbjK-12">
          <mxGeometry relative="1" as="geometry">
            <Array as="points">
              <mxPoint x="790" y="52" />
              <mxPoint x="790" y="176" />
            </Array>
          </mxGeometry>
        </mxCell>
        <mxCell id="ePh-xBDJGtSykjtxWbjK-17" style="edgeStyle=orthogonalEdgeStyle;rounded=0;orthogonalLoop=1;jettySize=auto;html=1;exitX=1;exitY=0.5;exitDx=0;exitDy=0;entryX=0;entryY=0.5;entryDx=0;entryDy=0;endArrow=none;endFill=0;" edge="1" parent="1" source="ePh-xBDJGtSykjtxWbjK-10" target="ePh-xBDJGtSykjtxWbjK-16">
          <mxGeometry relative="1" as="geometry" />
        </mxCell>
        <mxCell id="ePh-xBDJGtSykjtxWbjK-10" value="Background" style="swimlane;fontStyle=0;childLayout=stackLayout;horizontal=1;startSize=26;fillColor=none;horizontalStack=0;resizeParent=1;resizeParentMax=0;resizeLast=0;collapsible=1;marginBottom=0;whiteSpace=wrap;html=1;" vertex="1" parent="1">
          <mxGeometry x="770" width="140" height="52" as="geometry" />
        </mxCell>
        <mxCell id="ePh-xBDJGtSykjtxWbjK-11" value="Ground" style="swimlane;fontStyle=0;childLayout=stackLayout;horizontal=1;startSize=26;fillColor=none;horizontalStack=0;resizeParent=1;resizeParentMax=0;resizeLast=0;collapsible=1;marginBottom=0;whiteSpace=wrap;html=1;" vertex="1" parent="1">
          <mxGeometry x="810" y="80" width="140" height="52" as="geometry" />
        </mxCell>
        <mxCell id="ePh-xBDJGtSykjtxWbjK-12" value="Wall" style="swimlane;fontStyle=0;childLayout=stackLayout;horizontal=1;startSize=26;fillColor=none;horizontalStack=0;resizeParent=1;resizeParentMax=0;resizeLast=0;collapsible=1;marginBottom=0;whiteSpace=wrap;html=1;" vertex="1" parent="1">
          <mxGeometry x="810" y="150" width="140" height="52" as="geometry" />
        </mxCell>
        <mxCell id="ePh-xBDJGtSykjtxWbjK-23" style="edgeStyle=orthogonalEdgeStyle;rounded=0;orthogonalLoop=1;jettySize=auto;html=1;exitX=0.25;exitY=1;exitDx=0;exitDy=0;entryX=0;entryY=0.5;entryDx=0;entryDy=0;" edge="1" parent="1" source="ePh-xBDJGtSykjtxWbjK-15" target="ePh-xBDJGtSykjtxWbjK-20">
          <mxGeometry relative="1" as="geometry">
            <Array as="points">
              <mxPoint x="790" y="292" />
              <mxPoint x="790" y="354" />
            </Array>
          </mxGeometry>
        </mxCell>
        <mxCell id="ePh-xBDJGtSykjtxWbjK-24" style="edgeStyle=orthogonalEdgeStyle;rounded=0;orthogonalLoop=1;jettySize=auto;html=1;exitX=0.25;exitY=1;exitDx=0;exitDy=0;entryX=0;entryY=0.5;entryDx=0;entryDy=0;" edge="1" parent="1" source="ePh-xBDJGtSykjtxWbjK-15" target="ePh-xBDJGtSykjtxWbjK-21">
          <mxGeometry relative="1" as="geometry">
            <Array as="points">
              <mxPoint x="815" y="290" />
              <mxPoint x="790" y="290" />
              <mxPoint x="790" y="426" />
            </Array>
          </mxGeometry>
        </mxCell>
        <mxCell id="ePh-xBDJGtSykjtxWbjK-25" style="edgeStyle=orthogonalEdgeStyle;rounded=0;orthogonalLoop=1;jettySize=auto;html=1;exitX=0.25;exitY=1;exitDx=0;exitDy=0;entryX=0;entryY=0.5;entryDx=0;entryDy=0;" edge="1" parent="1" source="ePh-xBDJGtSykjtxWbjK-15" target="ePh-xBDJGtSykjtxWbjK-22">
          <mxGeometry relative="1" as="geometry">
            <Array as="points">
              <mxPoint x="815" y="290" />
              <mxPoint x="790" y="290" />
              <mxPoint x="790" y="496" />
            </Array>
          </mxGeometry>
        </mxCell>
        <mxCell id="ePh-xBDJGtSykjtxWbjK-27" style="edgeStyle=orthogonalEdgeStyle;rounded=0;orthogonalLoop=1;jettySize=auto;html=1;exitX=0.25;exitY=1;exitDx=0;exitDy=0;entryX=0;entryY=0.5;entryDx=0;entryDy=0;" edge="1" parent="1" source="ePh-xBDJGtSykjtxWbjK-15" target="ePh-xBDJGtSykjtxWbjK-26">
          <mxGeometry relative="1" as="geometry">
            <Array as="points">
              <mxPoint x="815" y="290" />
              <mxPoint x="790" y="290" />
              <mxPoint x="790" y="566" />
            </Array>
          </mxGeometry>
        </mxCell>
        <mxCell id="ePh-xBDJGtSykjtxWbjK-29" style="edgeStyle=orthogonalEdgeStyle;rounded=0;orthogonalLoop=1;jettySize=auto;html=1;exitX=1;exitY=0.5;exitDx=0;exitDy=0;entryX=0;entryY=0.5;entryDx=0;entryDy=0;endArrow=none;endFill=0;" edge="1" parent="1" source="ePh-xBDJGtSykjtxWbjK-15" target="ePh-xBDJGtSykjtxWbjK-28">
          <mxGeometry relative="1" as="geometry">
            <Array as="points">
              <mxPoint x="920" y="250" />
              <mxPoint x="940" y="250" />
              <mxPoint x="940" y="236" />
            </Array>
          </mxGeometry>
        </mxCell>
        <mxCell id="ePh-xBDJGtSykjtxWbjK-31" style="edgeStyle=orthogonalEdgeStyle;rounded=0;orthogonalLoop=1;jettySize=auto;html=1;exitX=1;exitY=0.5;exitDx=0;exitDy=0;entryX=0;entryY=0.5;entryDx=0;entryDy=0;endArrow=none;endFill=0;" edge="1" parent="1" source="ePh-xBDJGtSykjtxWbjK-15" target="ePh-xBDJGtSykjtxWbjK-30">
          <mxGeometry relative="1" as="geometry">
            <Array as="points">
              <mxPoint x="920" y="280" />
              <mxPoint x="940" y="280" />
              <mxPoint x="940" y="302" />
            </Array>
          </mxGeometry>
        </mxCell>
        <mxCell id="ePh-xBDJGtSykjtxWbjK-15" value="Obstacle" style="swimlane;fontStyle=0;childLayout=stackLayout;horizontal=1;startSize=26;fillColor=none;horizontalStack=0;resizeParent=1;resizeParentMax=0;resizeLast=0;collapsible=1;marginBottom=0;whiteSpace=wrap;html=1;" vertex="1" parent="1">
          <mxGeometry x="780" y="240" width="140" height="52" as="geometry" />
        </mxCell>
        <mxCell id="ePh-xBDJGtSykjtxWbjK-16" value="BackgroundController" style="swimlane;fontStyle=0;childLayout=stackLayout;horizontal=1;startSize=26;fillColor=none;horizontalStack=0;resizeParent=1;resizeParentMax=0;resizeLast=0;collapsible=1;marginBottom=0;whiteSpace=wrap;html=1;" vertex="1" parent="1">
          <mxGeometry x="970" width="150" height="52" as="geometry" />
        </mxCell>
        <mxCell id="ePh-xBDJGtSykjtxWbjK-20" value="Box" style="swimlane;fontStyle=0;childLayout=stackLayout;horizontal=1;startSize=26;fillColor=none;horizontalStack=0;resizeParent=1;resizeParentMax=0;resizeLast=0;collapsible=1;marginBottom=0;whiteSpace=wrap;html=1;" vertex="1" parent="1">
          <mxGeometry x="810" y="328" width="140" height="52" as="geometry" />
        </mxCell>
        <mxCell id="ePh-xBDJGtSykjtxWbjK-21" value="Bush" style="swimlane;fontStyle=0;childLayout=stackLayout;horizontal=1;startSize=26;fillColor=none;horizontalStack=0;resizeParent=1;resizeParentMax=0;resizeLast=0;collapsible=1;marginBottom=0;whiteSpace=wrap;html=1;" vertex="1" parent="1">
          <mxGeometry x="810" y="400" width="140" height="52" as="geometry" />
        </mxCell>
        <mxCell id="ePh-xBDJGtSykjtxWbjK-22" value="Rock" style="swimlane;fontStyle=0;childLayout=stackLayout;horizontal=1;startSize=26;fillColor=none;horizontalStack=0;resizeParent=1;resizeParentMax=0;resizeLast=0;collapsible=1;marginBottom=0;whiteSpace=wrap;html=1;" vertex="1" parent="1">
          <mxGeometry x="810" y="470" width="140" height="52" as="geometry" />
        </mxCell>
        <mxCell id="ePh-xBDJGtSykjtxWbjK-26" value="Box" style="swimlane;fontStyle=0;childLayout=stackLayout;horizontal=1;startSize=26;fillColor=none;horizontalStack=0;resizeParent=1;resizeParentMax=0;resizeLast=0;collapsible=1;marginBottom=0;whiteSpace=wrap;html=1;" vertex="1" parent="1">
          <mxGeometry x="810" y="540" width="140" height="52" as="geometry" />
        </mxCell>
        <mxCell id="ePh-xBDJGtSykjtxWbjK-28" value="ObstacleController" style="swimlane;fontStyle=0;childLayout=stackLayout;horizontal=1;startSize=26;fillColor=none;horizontalStack=0;resizeParent=1;resizeParentMax=0;resizeLast=0;collapsible=1;marginBottom=0;whiteSpace=wrap;html=1;" vertex="1" parent="1">
          <mxGeometry x="960" y="210" width="150" height="52" as="geometry" />
        </mxCell>
        <mxCell id="ePh-xBDJGtSykjtxWbjK-30" value="ObstacleFactory" style="swimlane;fontStyle=0;childLayout=stackLayout;horizontal=1;startSize=26;fillColor=none;horizontalStack=0;resizeParent=1;resizeParentMax=0;resizeLast=0;collapsible=1;marginBottom=0;whiteSpace=wrap;html=1;" vertex="1" parent="1">
          <mxGeometry x="960" y="276" width="150" height="52" as="geometry" />
        </mxCell>
        <mxCell id="ePh-xBDJGtSykjtxWbjK-44" style="edgeStyle=orthogonalEdgeStyle;rounded=0;orthogonalLoop=1;jettySize=auto;html=1;exitX=0.5;exitY=1;exitDx=0;exitDy=0;entryX=0.5;entryY=0;entryDx=0;entryDy=0;endArrow=none;endFill=0;" edge="1" parent="1" source="ePh-xBDJGtSykjtxWbjK-33" target="ePh-xBDJGtSykjtxWbjK-41">
          <mxGeometry relative="1" as="geometry" />
        </mxCell>
        <mxCell id="ePh-xBDJGtSykjtxWbjK-33" value="Projectile&lt;span style=&quot;background-color: initial;&quot;&gt;Controller&lt;/span&gt;" style="swimlane;fontStyle=0;childLayout=stackLayout;horizontal=1;startSize=26;fillColor=none;horizontalStack=0;resizeParent=1;resizeParentMax=0;resizeLast=0;collapsible=1;marginBottom=0;whiteSpace=wrap;html=1;" vertex="1" parent="1">
          <mxGeometry x="358.5" y="170" width="140" height="52" as="geometry" />
        </mxCell>
        <mxCell id="ePh-xBDJGtSykjtxWbjK-76" value="" style="edgeStyle=orthogonalEdgeStyle;rounded=0;orthogonalLoop=1;jettySize=auto;html=1;endArrow=none;endFill=0;" edge="1" parent="1" source="ePh-xBDJGtSykjtxWbjK-41" target="ePh-xBDJGtSykjtxWbjK-75">
          <mxGeometry relative="1" as="geometry" />
        </mxCell>
        <mxCell id="ePh-xBDJGtSykjtxWbjK-41" value="Projectile" style="swimlane;fontStyle=0;childLayout=stackLayout;horizontal=1;startSize=26;fillColor=none;horizontalStack=0;resizeParent=1;resizeParentMax=0;resizeLast=0;collapsible=1;marginBottom=0;whiteSpace=wrap;html=1;" vertex="1" parent="1">
          <mxGeometry x="452.5" y="262" width="140" height="52" as="geometry" />
        </mxCell>
        <mxCell id="ePh-xBDJGtSykjtxWbjK-63" style="edgeStyle=orthogonalEdgeStyle;rounded=0;orthogonalLoop=1;jettySize=auto;html=1;exitX=1;exitY=0.5;exitDx=0;exitDy=0;entryX=0.5;entryY=1;entryDx=0;entryDy=0;" edge="1" parent="1" source="ePh-xBDJGtSykjtxWbjK-42" target="ePh-xBDJGtSykjtxWbjK-41">
          <mxGeometry relative="1" as="geometry">
            <Array as="points">
              <mxPoint x="522.5" y="504" />
            </Array>
          </mxGeometry>
        </mxCell>
        <mxCell id="ePh-xBDJGtSykjtxWbjK-42" value="Arrow" style="swimlane;fontStyle=0;childLayout=stackLayout;horizontal=1;startSize=26;fillColor=none;horizontalStack=0;resizeParent=1;resizeParentMax=0;resizeLast=0;collapsible=1;marginBottom=0;whiteSpace=wrap;html=1;" vertex="1" parent="1">
          <mxGeometry x="350" y="478" width="140" height="52" as="geometry" />
        </mxCell>
        <mxCell id="ePh-xBDJGtSykjtxWbjK-66" style="edgeStyle=orthogonalEdgeStyle;rounded=0;orthogonalLoop=1;jettySize=auto;html=1;exitX=1;exitY=0.5;exitDx=0;exitDy=0;entryX=0.5;entryY=1;entryDx=0;entryDy=0;" edge="1" parent="1" source="ePh-xBDJGtSykjtxWbjK-43" target="ePh-xBDJGtSykjtxWbjK-41">
          <mxGeometry relative="1" as="geometry">
            <Array as="points">
              <mxPoint x="522.5" y="576" />
            </Array>
          </mxGeometry>
        </mxCell>
        <mxCell id="ePh-xBDJGtSykjtxWbjK-43" value="MagicBall" style="swimlane;fontStyle=0;childLayout=stackLayout;horizontal=1;startSize=26;fillColor=none;horizontalStack=0;resizeParent=1;resizeParentMax=0;resizeLast=0;collapsible=1;marginBottom=0;whiteSpace=wrap;html=1;" vertex="1" parent="1">
          <mxGeometry x="350" y="550" width="140" height="52" as="geometry" />
        </mxCell>
        <mxCell id="ePh-xBDJGtSykjtxWbjK-46" value="PlayerController" style="swimlane;fontStyle=0;childLayout=stackLayout;horizontal=1;startSize=26;fillColor=none;horizontalStack=0;resizeParent=1;resizeParentMax=0;resizeLast=0;collapsible=1;marginBottom=0;whiteSpace=wrap;html=1;" vertex="1" parent="1">
          <mxGeometry x="-220" y="510" width="140" height="52" as="geometry" />
        </mxCell>
        <mxCell id="ePh-xBDJGtSykjtxWbjK-79" style="edgeStyle=orthogonalEdgeStyle;rounded=0;orthogonalLoop=1;jettySize=auto;html=1;exitX=1;exitY=0.5;exitDx=0;exitDy=0;entryX=0.5;entryY=1;entryDx=0;entryDy=0;endArrow=none;endFill=0;" edge="1" parent="1" source="ePh-xBDJGtSykjtxWbjK-54" target="ePh-xBDJGtSykjtxWbjK-78">
          <mxGeometry relative="1" as="geometry" />
        </mxCell>
        <mxCell id="ePh-xBDJGtSykjtxWbjK-98" style="edgeStyle=orthogonalEdgeStyle;rounded=0;orthogonalLoop=1;jettySize=auto;html=1;exitX=0;exitY=0.5;exitDx=0;exitDy=0;entryX=1;entryY=0.5;entryDx=0;entryDy=0;" edge="1" parent="1" source="ePh-xBDJGtSykjtxWbjK-54" target="ePh-xBDJGtSykjtxWbjK-97">
          <mxGeometry relative="1" as="geometry" />
        </mxCell>
        <mxCell id="ePh-xBDJGtSykjtxWbjK-54" value="Weapon" style="swimlane;fontStyle=0;childLayout=stackLayout;horizontal=1;startSize=26;fillColor=none;horizontalStack=0;resizeParent=1;resizeParentMax=0;resizeLast=0;collapsible=1;marginBottom=0;whiteSpace=wrap;html=1;" vertex="1" parent="1">
          <mxGeometry x="160" y="276" width="140" height="52" as="geometry" />
        </mxCell>
        <mxCell id="ePh-xBDJGtSykjtxWbjK-89" style="edgeStyle=orthogonalEdgeStyle;rounded=0;orthogonalLoop=1;jettySize=auto;html=1;exitX=0;exitY=0.5;exitDx=0;exitDy=0;entryX=0.5;entryY=1;entryDx=0;entryDy=0;" edge="1" parent="1" source="ePh-xBDJGtSykjtxWbjK-56" target="ePh-xBDJGtSykjtxWbjK-54">
          <mxGeometry relative="1" as="geometry">
            <Array as="points">
              <mxPoint x="140" y="434" />
              <mxPoint x="140" y="360" />
              <mxPoint x="230" y="360" />
            </Array>
          </mxGeometry>
        </mxCell>
        <mxCell id="ePh-xBDJGtSykjtxWbjK-56" value="Sword" style="swimlane;fontStyle=0;childLayout=stackLayout;horizontal=1;startSize=26;fillColor=none;horizontalStack=0;resizeParent=1;resizeParentMax=0;resizeLast=0;collapsible=1;marginBottom=0;whiteSpace=wrap;html=1;" vertex="1" parent="1">
          <mxGeometry x="160" y="408" width="140" height="52" as="geometry" />
        </mxCell>
        <mxCell id="ePh-xBDJGtSykjtxWbjK-70" style="edgeStyle=orthogonalEdgeStyle;rounded=0;orthogonalLoop=1;jettySize=auto;html=1;exitX=1;exitY=0.5;exitDx=0;exitDy=0;entryX=0;entryY=0.5;entryDx=0;entryDy=0;endArrow=none;endFill=0;" edge="1" parent="1" source="ePh-xBDJGtSykjtxWbjK-57" target="ePh-xBDJGtSykjtxWbjK-42">
          <mxGeometry relative="1" as="geometry" />
        </mxCell>
        <mxCell id="ePh-xBDJGtSykjtxWbjK-92" style="edgeStyle=orthogonalEdgeStyle;rounded=0;orthogonalLoop=1;jettySize=auto;html=1;exitX=0;exitY=0.5;exitDx=0;exitDy=0;entryX=0.5;entryY=1;entryDx=0;entryDy=0;" edge="1" parent="1" source="ePh-xBDJGtSykjtxWbjK-57" target="ePh-xBDJGtSykjtxWbjK-54">
          <mxGeometry relative="1" as="geometry">
            <Array as="points">
              <mxPoint x="140" y="504" />
              <mxPoint x="140" y="360" />
              <mxPoint x="230" y="360" />
            </Array>
          </mxGeometry>
        </mxCell>
        <mxCell id="ePh-xBDJGtSykjtxWbjK-57" value="Bow" style="swimlane;fontStyle=0;childLayout=stackLayout;horizontal=1;startSize=26;fillColor=none;horizontalStack=0;resizeParent=1;resizeParentMax=0;resizeLast=0;collapsible=1;marginBottom=0;whiteSpace=wrap;html=1;" vertex="1" parent="1">
          <mxGeometry x="160" y="478" width="140" height="52" as="geometry" />
        </mxCell>
        <mxCell id="ePh-xBDJGtSykjtxWbjK-61" style="edgeStyle=orthogonalEdgeStyle;rounded=0;orthogonalLoop=1;jettySize=auto;html=1;exitX=1;exitY=0.5;exitDx=0;exitDy=0;entryX=0;entryY=0.5;entryDx=0;entryDy=0;endArrow=none;endFill=0;" edge="1" parent="1" source="ePh-xBDJGtSykjtxWbjK-59" target="ePh-xBDJGtSykjtxWbjK-43">
          <mxGeometry relative="1" as="geometry" />
        </mxCell>
        <mxCell id="ePh-xBDJGtSykjtxWbjK-94" style="edgeStyle=orthogonalEdgeStyle;rounded=0;orthogonalLoop=1;jettySize=auto;html=1;exitX=0;exitY=0.5;exitDx=0;exitDy=0;entryX=0.5;entryY=1;entryDx=0;entryDy=0;" edge="1" parent="1" source="ePh-xBDJGtSykjtxWbjK-59" target="ePh-xBDJGtSykjtxWbjK-54">
          <mxGeometry relative="1" as="geometry">
            <Array as="points">
              <mxPoint x="140" y="576" />
              <mxPoint x="140" y="360" />
              <mxPoint x="230" y="360" />
            </Array>
          </mxGeometry>
        </mxCell>
        <mxCell id="ePh-xBDJGtSykjtxWbjK-59" value="MagicStaff" style="swimlane;fontStyle=0;childLayout=stackLayout;horizontal=1;startSize=26;fillColor=none;horizontalStack=0;resizeParent=1;resizeParentMax=0;resizeLast=0;collapsible=1;marginBottom=0;whiteSpace=wrap;html=1;" vertex="1" parent="1">
          <mxGeometry x="160" y="550" width="140" height="52" as="geometry" />
        </mxCell>
        <mxCell id="ePh-xBDJGtSykjtxWbjK-75" value="ProjectileFactory" style="swimlane;fontStyle=0;childLayout=stackLayout;horizontal=1;startSize=26;fillColor=none;horizontalStack=0;resizeParent=1;resizeParentMax=0;resizeLast=0;collapsible=1;marginBottom=0;whiteSpace=wrap;html=1;" vertex="1" parent="1">
          <mxGeometry x="538.5" y="170" width="140" height="52" as="geometry" />
        </mxCell>
        <mxCell id="ePh-xBDJGtSykjtxWbjK-78" value="ProjectileFactory" style="swimlane;fontStyle=0;childLayout=stackLayout;horizontal=1;startSize=26;fillColor=none;horizontalStack=0;resizeParent=1;resizeParentMax=0;resizeLast=0;collapsible=1;marginBottom=0;whiteSpace=wrap;html=1;" vertex="1" parent="1">
          <mxGeometry x="180" y="170" width="140" height="52" as="geometry" />
        </mxCell>
        <mxCell id="ePh-xBDJGtSykjtxWbjK-80" style="edgeStyle=orthogonalEdgeStyle;rounded=0;orthogonalLoop=1;jettySize=auto;html=1;entryX=0;entryY=0.5;entryDx=0;entryDy=0;" edge="1" parent="1" target="TCKFNK1VzcnC_DEqVwrI-25">
          <mxGeometry relative="1" as="geometry">
            <mxPoint x="-220" y="302" as="sourcePoint" />
          </mxGeometry>
        </mxCell>
        <mxCell id="ePh-xBDJGtSykjtxWbjK-81" value="Enemy&lt;span style=&quot;background-color: initial;&quot;&gt;Factory&lt;/span&gt;" style="swimlane;fontStyle=0;childLayout=stackLayout;horizontal=1;startSize=26;fillColor=none;horizontalStack=0;resizeParent=1;resizeParentMax=0;resizeLast=0;collapsible=1;marginBottom=0;whiteSpace=wrap;html=1;" vertex="1" parent="1">
          <mxGeometry x="-410" y="250" width="140" height="52" as="geometry" />
        </mxCell>
        <mxCell id="ePh-xBDJGtSykjtxWbjK-99" style="edgeStyle=orthogonalEdgeStyle;rounded=0;orthogonalLoop=1;jettySize=auto;html=1;exitX=0;exitY=0.5;exitDx=0;exitDy=0;entryX=1;entryY=0.5;entryDx=0;entryDy=0;endArrow=none;endFill=0;" edge="1" parent="1" source="ePh-xBDJGtSykjtxWbjK-97" target="TCKFNK1VzcnC_DEqVwrI-25">
          <mxGeometry relative="1" as="geometry" />
        </mxCell>
        <mxCell id="ePh-xBDJGtSykjtxWbjK-97" value="EquipableItem" style="swimlane;fontStyle=0;childLayout=stackLayout;horizontal=1;startSize=26;fillColor=none;horizontalStack=0;resizeParent=1;resizeParentMax=0;resizeLast=0;collapsible=1;marginBottom=0;whiteSpace=wrap;html=1;" vertex="1" parent="1">
          <mxGeometry x="-40" y="276" width="140" height="52" as="geometry" />
        </mxCell>
        <mxCell id="ePh-xBDJGtSykjtxWbjK-101" style="edgeStyle=orthogonalEdgeStyle;rounded=0;orthogonalLoop=1;jettySize=auto;html=1;exitX=0.5;exitY=0;exitDx=0;exitDy=0;entryX=0.5;entryY=1;entryDx=0;entryDy=0;" edge="1" parent="1" source="ePh-xBDJGtSykjtxWbjK-100" target="ePh-xBDJGtSykjtxWbjK-97">
          <mxGeometry relative="1" as="geometry" />
        </mxCell>
        <mxCell id="ePh-xBDJGtSykjtxWbjK-100" value="Armor" style="swimlane;fontStyle=0;childLayout=stackLayout;horizontal=1;startSize=26;fillColor=none;horizontalStack=0;resizeParent=1;resizeParentMax=0;resizeLast=0;collapsible=1;marginBottom=0;whiteSpace=wrap;html=1;" vertex="1" parent="1">
          <mxGeometry x="-40" y="380" width="140" height="52" as="geometry" />
        </mxCell>
        <mxCell id="ePh-xBDJGtSykjtxWbjK-105" style="edgeStyle=orthogonalEdgeStyle;rounded=0;orthogonalLoop=1;jettySize=auto;html=1;exitX=0;exitY=0.5;exitDx=0;exitDy=0;entryX=0.25;entryY=1;entryDx=0;entryDy=0;" edge="1" parent="1" source="ePh-xBDJGtSykjtxWbjK-104" target="ePh-xBDJGtSykjtxWbjK-100">
          <mxGeometry relative="1" as="geometry" />
        </mxCell>
        <mxCell id="ePh-xBDJGtSykjtxWbjK-104" value="Shield" style="swimlane;fontStyle=0;childLayout=stackLayout;horizontal=1;startSize=26;fillColor=none;horizontalStack=0;resizeParent=1;resizeParentMax=0;resizeLast=0;collapsible=1;marginBottom=0;whiteSpace=wrap;html=1;" vertex="1" parent="1">
          <mxGeometry x="-20" y="510" width="140" height="52" as="geometry" />
        </mxCell>
        <mxCell id="ePh-xBDJGtSykjtxWbjK-109" style="edgeStyle=orthogonalEdgeStyle;rounded=0;orthogonalLoop=1;jettySize=auto;html=1;exitX=0;exitY=0.5;exitDx=0;exitDy=0;entryX=0.5;entryY=1;entryDx=0;entryDy=0;" edge="1" parent="1" source="ePh-xBDJGtSykjtxWbjK-106" target="ePh-xBDJGtSykjtxWbjK-54">
          <mxGeometry relative="1" as="geometry">
            <Array as="points">
              <mxPoint x="140" y="646" />
              <mxPoint x="140" y="360" />
              <mxPoint x="230" y="360" />
            </Array>
          </mxGeometry>
        </mxCell>
        <mxCell id="ePh-xBDJGtSykjtxWbjK-106" value="LongSword" style="swimlane;fontStyle=0;childLayout=stackLayout;horizontal=1;startSize=26;fillColor=none;horizontalStack=0;resizeParent=1;resizeParentMax=0;resizeLast=0;collapsible=1;marginBottom=0;whiteSpace=wrap;html=1;" vertex="1" parent="1">
          <mxGeometry x="160" y="620" width="140" height="52" as="geometry" />
        </mxCell>
      </root>
    </mxGraphModel>
  </diagram>
</mxfile>
